#N canvas 827 239 527 327 12;
#X obj 541 258 *~;
#X obj 165 -3 vsl 17 128 0 4 0 0 empty empty empty 0 -9 0 10 #333333 #7b7b7b #e4e4e4 0 1;
#X msg 658 237 \$1 5;
#X obj 658 266 line~;
#X obj 467 227 inlet~;
#X obj 425 596 outlet~;
#X obj 403 450 *~ 128;
#X obj 403 475 +~ 129;
#X obj 402 524 hip~ 5;
#X obj 764 562 loadbang;
#X text 1060 573 polynomials 3;
#X msg 764 594 \; E06-tab -1.071 -1 -0.9304 -0.8623 -0.7956 -0.7303 -0.6665 -0.6041 -0.543 -0.4834 -0.4251 -0.3682 -0.3126 -0.2584 -0.2055 -0.1539 -0.1037 -0.05469 -0.006987 0.03944 0.08462 0.1285 0.1712 0.2127 0.2529 0.292 0.3299 0.3665 0.402 0.4364 0.4696 0.5017 0.5327 0.5625 0.5912 0.6189 0.6455 0.671 0.6955 0.7189 0.7413 0.7627 0.7831 0.8024 0.8208 0.8383 0.8547 0.8702 0.8848 0.8984 0.9112 0.923 0.9339 0.944 0.9531 0.9615 0.9689 0.9756 0.9814 0.9864 0.9906 0.994 0.9967 0.9985 0.9996 1 0.9996 0.9986 0.9968 0.9943 0.9911 0.9872 0.9827 0.9775 0.9717 0.9653 0.9582 0.9506 0.9423 0.9335 0.924 0.9141 0.9035 0.8925 0.8809 0.8688 0.8562 0.8431 0.8295 0.8154 0.8009 0.786 0.7706 0.7548 0.7385 0.7219 0.7049 0.6875 0.6697 0.6516 0.6332 0.6144 0.5953 0.5759 0.5561 0.5361 0.5159 0.4953 0.4745 0.4535 0.4322 0.4108 0.3891 0.3672 0.3451 0.3229 0.3005 0.278 0.2553 0.2325 0.2095 0.1865 0.1634 0.1402 0.1169 0.09363 0.07026 0.04686 0.02344 0 -0.02344 -0.04686 -0.07026 -0.09363 -0.1169 -0.1402 -0.1634 -0.1865 -0.2095 -0.2325 -0.2553 -0.278 -0.3005 -0.3229 -0.3451 -0.3672 -0.3891 -0.4108 -0.4322 -0.4535 -0.4745 -0.4953 -0.5159 -0.5361 -0.5561 -0.5759 -0.5953 -0.6144 -0.6332 -0.6516 -0.6697 -0.6875 -0.7049 -0.7219 -0.7385 -0.7548 -0.7706 -0.786 -0.8009 -0.8154 -0.8295 -0.8431 -0.8562 -0.8688 -0.8809 -0.8925 -0.9035 -0.9141 -0.924 -0.9335 -0.9423 -0.9506 -0.9582 -0.9653 -0.9717 -0.9775 -0.9827 -0.9872 -0.9911 -0.9943 -0.9968 -0.9986 -0.9996 -1 -0.9996 -0.9985 -0.9967 -0.994 -0.9906 -0.9864 -0.9814 -0.9756 -0.9689 -0.9615 -0.9531 -0.944 -0.9339 -0.923 -0.9112 -0.8984 -0.8848 -0.8702 -0.8547 -0.8383 -0.8208 -0.8024 -0.7831 -0.7627 -0.7413 -0.7189 -0.6955 -0.671 -0.6455 -0.6189 -0.5912 -0.5625 -0.5327 -0.5017 -0.4696 -0.4364 -0.402 -0.3665 -0.3299 -0.292 -0.2529 -0.2127 -0.1712 -0.1285 -0.08462 -0.03944 0.006987 0.05469 0.1037 0.1539 0.2055 0.2584 0.3126 0.3682 0.4251 0.4834 0.543 0.6041 0.6665 0.7303 0.7956 0.8623 0.9304 1 1.071;
#X obj 403 499 tabread4~ E06-tab;
#N canvas 0 0 450 250 (subpatch) 0;
#X array E06-tab 259 float 2;
#X coords 0 1 259 -1 200 140 1;
#X restore 833 323 graph;
#X connect 0 0 6 0;
#X connect 1 0 2 0;
#X connect 2 0 3 0;
#X connect 3 0 0 1;
#X connect 4 0 0 0;
#X connect 6 0 7 0;
#X connect 7 0 12 0;
#X connect 8 0 5 0;
#X connect 9 0 11 0;
#X connect 12 0 8 0;
#X coords 0 0 1 1 40 141 1 153 -11;
