#N canvas 827 239 4721 1769 12;
#X obj 1933 1168 cos~;
#X obj 1933 1145 +~ 0.1;
#X msg 2035 1082 0;
#X msg 2034 1119 0.25;
#X obj 1926 1029 osc~;
#X obj 440 556 vsl 23 168 0 127 0 0 empty empty empty 0 -9 0 10 #333333 #7b7b7b #e4e4e4 0 1;
#X obj 1933 1197 hip~ 5;
#X obj 478 667 vsl 17 128 0 1 0 0 empty empty empty 0 -9 0 10 #ffffff #7b7b7b #e4e4e4 0 1;
#X obj 1933 1226 *~;
#X obj 2303 1065 cos~;
#X obj 2303 1042 +~ 0.1;
#X msg 2371 1065 0;
#X msg 2371 1087 0.25;
#X obj 2302 995 osc~;
#X obj 2303 1094 hip~ 5;
#X obj 584 666 vsl 17 128 0 1 0 0 empty empty empty 0 -9 0 10 #ffffff #7b7b7b #e4e4e4 0 1;
#X obj 2303 1123 *~;
#X obj 2848 680 mtof;
#X obj 2483 1055 cos~;
#X obj 2483 1032 +~ 0.1;
#X msg 2592 1050 0;
#X msg 2554 1077 0.25;
#X obj 2477 987 osc~;
#X obj 2483 1084 hip~ 5;
#X obj 637 666 vsl 17 128 0 1 0 0 empty empty empty 0 -9 0 10 #ffffff #7b7b7b #e4e4e4 0 1;
#X obj 2483 1113 *~;
#X obj 2146 1045 cos~;
#X obj 2146 1022 +~ 0.1;
#X msg 2226 1070 0;
#X msg 2232 1106 0.25;
#X obj 2145 989 osc~;
#X obj 2146 1074 hip~ 5;
#X obj 531 652 vsl 17 128 0 1 0 0 empty empty empty 0 -9 0 10 #333333 #7b7b7b #e4e4e4 0 1;
#X obj 2146 1103 *~;
#X obj 1989 896 random 100;
#X obj 1198 487 tgl 25 0 empty empty empty 17 7 0 10 #333333 #7b7b7b #e4e4e4 0 1;
#X floatatom 2061 648 5 0 0 0 - - - 12;
#X obj 2000 755 bng 25 250 50 0 empty empty empty 17 7 0 10 #333333 #7b7b7b #e4e4e4;
#X floatatom 1989 925 5 0 0 0 - - - 12;
#X msg 2065 577 loadbang;
#X obj 2688 1041 cos~;
#X obj 2688 1018 +~ 0.1;
#X msg 2764 1056 0;
#X msg 2775 1078 0.25;
#X obj 2687 975 osc~;
#X obj 2688 1070 hip~ 5;
#X obj 690 652 vsl 17 128 0 1 0 0 empty empty empty 0 -9 0 10 #333333 #7b7b7b #e4e4e4 0 1;
#X obj 2688 1099 *~;
#X obj 2886 1040 cos~;
#X obj 2886 1017 +~ 0.1;
#X msg 2960 1068 0;
#X msg 2980 1090 0.25;
#X obj 2882 977 osc~;
#X obj 2886 1069 hip~ 5;
#X obj 744 667 vsl 17 128 0 1 0 0 empty empty empty 0 -9 0 10 #ffffff #7b7b7b #e4e4e4 0 1;
#X obj 2886 1098 *~;
#X obj 3075 1034 cos~;
#X obj 3075 1011 +~ 0.1;
#X msg 3146 1055 0;
#X msg 3146 1077 0.25;
#X obj 3073 957 osc~;
#X obj 3075 1063 hip~ 5;
#X obj 797 652 vsl 17 128 0 1 0 0 empty empty empty 0 -9 0 10 #333333 #7b7b7b #e4e4e4 0 1;
#X obj 3075 1092 *~;
#X obj 2144 952 * 1.0535;
#X obj 2476 947 * 1.18518;
#X obj 2298 963 * 1.125;
#X obj 3868 1032 cos~, f 6;
#X obj 3868 1009 +~ 0.1, f 7;
#X msg 3973 1009 0;
#X msg 3980 1031 0.25, f 6;
#X obj 3867 929 osc~, f 6;
#X obj 3868 1061 hip~ 5, f 7;
#X obj 1013 667 vsl 17 128 0 1 0 0 empty empty empty 0 -9 0 10 #ffffff #7b7b7b #e4e4e4 0 1;
#X obj 3868 1090 *~, f 5;
#X msg 2081 881 \$1 5;
#X obj 2081 910 line~;
#X msg 2190 897 \$1 5;
#X obj 2190 926 line~;
#X msg 2299 880 \$1 5;
#X obj 2299 909 line~;
#X msg 2551 952 \$1 5;
#X obj 2551 981 line~;
#X msg 2758 933 \$1 5;
#X obj 2758 962 line~;
#X msg 2949 949 \$1 5;
#X obj 2949 978 line~;
#X msg 3140 957 \$1 5;
#X obj 3140 986 line~;
#X msg 3934 931 \$1 5, f 5;
#X obj 3934 960 line~, f 6;
#X text 540 465 E♭;
#X text 591 480 E;
#X text 647 474 F;
#X obj 2686 935 * 1.2656;
#X text 693 459 F♯;
#X obj 2881 937 * 1.3333;
#X text 749 473 G;
#X obj 3680 1030 cos~;
#X obj 3680 1007 +~ 0.1;
#X msg 3751 1051 0;
#X msg 3751 1073 0.25;
#X obj 3678 953 osc~;
#X obj 3680 1059 hip~ 5;
#X obj 964 652 vsl 17 128 0 1 0 0 empty empty empty 0 -9 0 10 #333333 #7b7b7b #e4e4e4 0 1;
#X obj 3680 1088 *~;
#X msg 3745 953 \$1 5;
#X obj 3745 982 line~;
#X obj 3072 917 * 1.40466;
#X obj 3296 1030 cos~;
#X obj 3296 1007 +~ 0.1;
#X msg 3367 1051 0;
#X msg 3367 1073 0.25;
#X obj 3294 953 osc~;
#X obj 3296 1059 hip~ 5;
#X obj 851 652 vsl 17 128 0 1 0 0 empty empty empty 0 -9 0 10 #333333 #7b7b7b #e4e4e4 0 1;
#X obj 3297 1089 *~;
#X msg 3361 953 \$1 5;
#X obj 3361 982 line~;
#X text 856 465 G♯;
#X obj 3293 913 * 1.42382;
#X obj 3504 1031 cos~;
#X obj 3504 1008 +~ 0.1;
#X msg 3575 1052 0;
#X msg 3575 1074 0.25;
#X obj 3502 954 osc~;
#X obj 3504 1060 hip~ 5;
#X obj 905 667 vsl 17 128 0 1 0 0 empty empty empty 0 -9 0 10 #ffffff #7b7b7b #e4e4e4 0 1;
#X obj 3504 1089 *~;
#X msg 3569 954 \$1 5;
#X obj 3569 983 line~;
#X obj 3501 914 * 1.5;
#X text 913 480 A;
#X obj 3677 913 * 1.58024;
#X text 1022 465 B;
#X obj 3866 889 * 1.6875;
#X text 4039 812 symmetry, f 10;
#X obj 4108 1007 cos~, f 6;
#X obj 4108 984 +~ 0.1, f 7;
#X msg 4213 984 0;
#X msg 4220 1006 0.25, f 6;
#X obj 4107 904 osc~, f 6;
#X obj 4108 1036 hip~ 5, f 7;
#X obj 1067 667 vsl 17 128 0 1 0 0 empty empty empty 0 -9 0 10 #ffffff #7b7b7b #e4e4e4 0 1;
#X obj 4108 1065 *~, f 5;
#X msg 4174 906 \$1 5, f 5;
#X obj 4174 935 line~, f 6;
#X obj 4084 864 * 1.77777;
#X text 1074 480 C;
#X text 4259 781 symmetry, f 10;
#X obj 4328 976 cos~, f 6;
#X obj 4328 953 +~ 0.1, f 7;
#X msg 4439 931 0;
#X msg 4448 953 0.25, f 6;
#X obj 4327 873 osc~, f 6;
#X text 4438 841 symmetry, f 10;
#X obj 4328 1005 hip~ 5, f 7;
#X obj 1121 652 vsl 17 128 0 1 0 0 empty empty empty 0 -9 0 10 #333333 #7b7b7b #e4e4e4 0 1;
#X obj 4328 1034 *~, f 5;
#X msg 4394 875 \$1 5, f 5;
#X obj 4394 904 line~, f 6;
#X text 1118 465 C♯;
#X obj 4326 833 * 1.89843;
#X text 2945 668 comment;
#X text 484 480 D;
#X obj 474 814 bng 25 250 50 0 mixedd empty mixed -2 -10 0 10 #ffffff #7b7b7b #060606;
#X obj 474 858 bng 25 250 50 0 evend empty even -2 -10 0 10 #ffffff #7b7b7b #060606;
#X obj 475 901 bng 25 250 50 0 oddd empty odd -2 -10 0 10 #ffffff #7b7b7b #060606;
#X obj 2046 986 r mixedd;
#X obj 2064 1011 r evend;
#X obj 2083 1044 r oddd;
#X obj 528 815 bng 25 250 50 0 mixedeb empty mixed -2 -10 0 10 #333333 #7b7b7b #060606;
#X obj 528 859 bng 25 250 50 0 eveneb empty even -2 -10 0 10 #333333 #7b7b7b #060606;
#X obj 528 901 bng 25 250 50 0 oddeb empty odd -2 -10 0 10 #333333 #7b7b7b #060606;
#X obj 2219 960 r mixedeb;
#X obj 2237 985 r eveneb;
#X obj 2256 1018 r oddeb;
#X obj 2375 973 r mixede;
#X obj 2393 998 r evene;
#X obj 2412 1031 r odde;
#X obj 580 816 bng 25 250 50 0 mixede empty mixed -2 -10 0 10 #ffffff #7b7b7b #060606;
#X obj 580 860 bng 25 250 50 0 evene empty even -2 -10 0 10 #ffffff #7b7b7b #060606;
#X obj 580 902 bng 25 250 50 0 odde empty odd -2 -10 0 10 #ffffff #7b7b7b #060606;
#X obj 2600 961 r mixedf;
#X obj 2618 986 r evenf;
#X obj 2637 1019 r oddf;
#X text 2610 1089 comment;
#X obj 2789 996 r mixedfis;
#X obj 2807 1021 r evenfis;
#X obj 2826 1054 r oddfis;
#X obj 638 817 bng 25 250 50 0 mixedf empty mixed -2 -10 0 10 #ffffff #7b7b7b #060606;
#X obj 638 861 bng 25 250 50 0 evenf empty even -2 -10 0 10 #ffffff #7b7b7b #060606;
#X obj 638 903 bng 25 250 50 0 oddf empty odd -2 -10 0 10 #ffffff #7b7b7b #060606;
#X obj 693 814 bng 25 250 50 0 mixedfis empty mixed -2 -10 0 10 #333333 #7b7b7b #060606;
#X obj 693 858 bng 25 250 50 0 evenfis empty even -2 -10 0 10 #333333 #7b7b7b #060606;
#X obj 693 900 bng 25 250 50 0 oddfis empty odd -2 -10 0 10 #333333 #7b7b7b #060606;
#X obj 741 813 bng 25 250 50 0 mixedg empty mixed -2 -10 0 10 #ffffff #7b7b7b #060606;
#X obj 741 857 bng 25 250 50 0 eveng empty even -2 -10 0 10 #ffffff #7b7b7b #060606;
#X obj 741 899 bng 25 250 50 0 oddg empty odd -2 -10 0 10 #ffffff #7b7b7b #060606;
#X obj 803 814 bng 25 250 50 0 mixedab empty mixed -2 -10 0 10 #333333 #7b7b7b #060606;
#X obj 803 858 bng 25 250 50 0 evenab empty even -2 -10 0 10 #333333 #7b7b7b #060606;
#X obj 803 900 bng 25 250 50 0 oddab empty odd -2 -10 0 10 #333333 #7b7b7b #060606;
#X obj 856 814 bng 25 250 50 0 mixedgis empty mixed -2 -10 0 10 #333333 #7b7b7b #060606;
#X obj 856 858 bng 25 250 50 0 evengis empty even -2 -10 0 10 #333333 #7b7b7b #060606;
#X obj 856 900 bng 25 250 50 0 oddgis empty odd -2 -10 0 10 #333333 #7b7b7b #060606;
#X obj 908 814 bng 25 250 50 0 mixeda empty mixed -2 -10 0 10 #ffffff #7b7b7b #060606;
#X obj 908 858 bng 25 250 50 0 evena empty even -2 -10 0 10 #ffffff #7b7b7b #060606;
#X obj 908 900 bng 25 250 50 0 odda empty odd -2 -10 0 10 #ffffff #7b7b7b #060606;
#X obj 966 814 bng 25 250 50 0 mixedbb empty mixed -2 -10 0 10 #333333 #7b7b7b #060606;
#X obj 966 858 bng 25 250 50 0 evenbb empty even -2 -10 0 10 #333333 #7b7b7b #060606;
#X obj 966 900 bng 25 250 50 0 oddbb empty odd -2 -10 0 10 #333333 #7b7b7b #060606;
#X obj 1017 814 bng 25 250 50 0 mixedb empty mixed -2 -10 0 10 #ffffff #7b7b7b #060606;
#X obj 1017 858 bng 25 250 50 0 evenb empty even -2 -10 0 10 #ffffff #7b7b7b #060606;
#X obj 1017 900 bng 25 250 50 0 oddb empty odd -2 -10 0 10 #ffffff #7b7b7b #060606;
#X obj 1070 815 bng 25 250 50 0 mixedc empty mixed -2 -10 0 10 #ffffff #7b7b7b #060606;
#X obj 1070 859 bng 25 250 50 0 evenc empty even -2 -10 0 10 #ffffff #7b7b7b #060606;
#X obj 1070 901 bng 25 250 50 0 oddc empty odd -2 -10 0 10 #ffffff #7b7b7b #060606;
#X obj 1123 817 bng 25 250 50 0 mixedcis empty mixed -2 -10 0 10 #333333 #7b7b7b #060606;
#X obj 1123 861 bng 25 250 50 0 evencis empty even -2 -10 0 10 #333333 #7b7b7b #060606;
#X obj 1123 903 bng 25 250 50 0 oddcis empty odd -2 -10 0 10 #333333 #7b7b7b #060606;
#X obj 2984 1014 r mixedg;
#X obj 3002 1039 r eveng;
#X obj 3021 1072 r oddg;
#X obj 3178 1006 r mixedab;
#X obj 3196 1031 r evenab;
#X obj 3215 1064 r oddab;
#X obj 3407 1011 r mixedgis;
#X obj 3425 1036 r evengis;
#X obj 3444 1069 r oddgis;
#X obj 3607 1009 r mixeda;
#X obj 3625 1034 r evena;
#X obj 3644 1067 r odda;
#X obj 3776 1008 r mixedbb;
#X obj 3794 1033 r evenbb;
#X obj 3813 1066 r oddbb;
#X obj 4006 943 r mixedb;
#X obj 4024 968 r evenb;
#X obj 4043 1001 r oddb;
#X obj 4234 895 r mixedc;
#X obj 4252 920 r evenc;
#X obj 4271 953 r oddc;
#X obj 4507 874 r mixedcis;
#X obj 4525 899 r evencis;
#X obj 4544 932 r oddcis;
#X msg 2034 1056 0.125;
#X msg 2209 1039 0.125;
#X msg 2364 1037 0.125;
#X msg 2564 1024 0.125;
#X msg 2755 1033 0.125;
#X msg 2944 1046 0.125;
#X msg 3139 1033 0.125;
#X msg 3367 1029 0.125;
#X msg 3571 1025 0.125;
#X msg 3743 1029 0.125;
#X msg 3958 987 0.125, f 6;
#X msg 4205 944 0.125, f 4;
#X msg 4453 875 0.125, f 4;
#X obj 1989 952 / 80;
#X obj 1974 1084 line;
#X msg 1974 1055 \$1 200;
#X obj 2226 1190 line;
#X msg 2226 1161 \$1 200;
#X obj 2384 1208 line;
#X msg 2384 1179 \$1 200;
#X obj 2569 1219 line;
#X msg 2569 1190 \$1 200;
#X obj 2743 1233 line;
#X msg 2743 1204 \$1 200;
#X obj 2972 1254 line;
#X msg 2972 1225 \$1 200;
#X obj 3147 1264 line;
#X msg 3147 1235 \$1 200;
#X obj 3357 1273 line;
#X msg 3357 1244 \$1 200;
#X obj 3587 1168 line;
#X msg 3587 1139 \$1 200;
#X obj 3730 1177 line;
#X msg 3730 1148 \$1 200;
#X obj 3897 1160 line;
#X msg 3913 1131 \$1 200;
#X obj 4188 1062 line;
#X msg 4188 1033 \$1 200;
#X obj 4393 1097 line;
#X msg 4393 1068 \$1 200;
#X obj 1983 1774 delread4~ harmonicoscillatordelay;
#X obj 2245 1623 *~;
#X obj 2245 1694 hip~ 5;
#X obj 2245 1723 lop~ 30000;
#X obj 1216 555 vsl 17 128 0 0.97 0 0 empty empty empty 0 -9 0 10 #333333 #7b7b7b #e4e4e4 0 1;
#X msg 1871 1701 \$1 10;
#X obj 1189 556 vsl 17 128 0 100 0 0 empty empty empty 0 -9 0 10 #333333 #7b7b7b #e4e4e4 0 1;
#X obj 1871 1730 line~;
#X obj 1978 1735 delwrite~ harmonicoscillatordelay 120;
#X obj 3721 1276 *~ 0.4;
#X obj 2123 147 mtof;
#X obj 2128 205 osc~;
#X obj 2128 234 +~ 1;
#X obj 2128 263 /~ 2;
#X obj 2128 292 snapshot~;
#X obj 2000 196 tgl 25 0 empty empty empty 17 7 0 10 #333333 #7b7b7b #e4e4e4 0 1;
#X msg 2128 321 \$1 5;
#X obj 2128 350 line;
#X obj 2128 379 *;
#X obj 502 511 vsl 17 128 0 1 0 0 empty empty empty 0 -9 0 10 #ffffff #7b7b7b #e4e4e4 0 1;
#X obj 502 666 vsl 8 127 0 1 0 0 empty empty empty 0 -9 0 10 #ffffff #7b7b7b #e4e4e4 0 1;
#X obj 2088 792 +;
#X obj 2084 752 t b f;
#X obj 2088 821 max 0;
#X obj 2088 850 min 1;
#X obj 2128 176 / 1024;
#X obj 478 511 vsl 17 128 0 127 0 0 empty empty empty 0 -9 0 10 #ffffff #7b7b7b #e4e4e4 0 1;
#X obj 2199 801 +;
#X obj 2195 761 t b f;
#X obj 2199 830 max 0;
#X obj 2199 859 min 1;
#X obj 2217 142 mtof;
#X obj 2222 200 osc~;
#X obj 2222 229 +~ 1;
#X obj 2222 258 /~ 2;
#X obj 2222 287 snapshot~;
#X msg 2222 316 \$1 5;
#X obj 2222 345 line;
#X obj 2222 374 *;
#X obj 555 496 vsl 17 128 0 1 0 0 empty empty empty 0 -9 0 10 #333333 #7b7b7b #e4e4e4 0 1;
#X obj 2222 171 / 1024;
#X obj 531 496 vsl 17 128 0 127 0 0 empty empty empty 0 -9 0 10 #333333 #7b7b7b #e4e4e4 0 1;
#X obj 555 652 vsl 8 127 0 1 0 0 empty empty empty 0 -9 0 10 #333333 #7b7b7b #e4e4e4 0 1;
#X obj 608 667 vsl 8 127 0 1 0 0 empty empty empty 0 -9 0 10 #ffffff #7b7b7b #e4e4e4 0 1;
#X obj 2308 793 +;
#X obj 2304 753 t b f;
#X obj 2308 822 max 0;
#X obj 2308 851 min 1;
#X obj 2311 138 mtof;
#X obj 2316 196 osc~;
#X obj 2316 225 +~ 1;
#X obj 2316 254 /~ 2;
#X obj 2316 283 snapshot~;
#X msg 2316 312 \$1 5;
#X obj 2316 341 line;
#X obj 2316 370 *;
#X obj 608 511 vsl 17 128 0 1 0 0 empty empty empty 0 -9 0 10 #ffffff #7b7b7b #e4e4e4 0 1;
#X obj 2316 167 / 1024;
#X obj 584 511 vsl 17 128 0 127 0 0 empty empty empty 0 -9 0 10 #ffffff #7b7b7b #e4e4e4 0 1;
#X obj 2405 136 mtof;
#X obj 2410 194 osc~;
#X obj 2410 223 +~ 1;
#X obj 2410 252 /~ 2;
#X obj 2410 281 snapshot~;
#X msg 2410 310 \$1 5;
#X obj 2410 339 line;
#X obj 2410 368 *;
#X obj 661 511 vsl 17 128 0 1 0 0 empty empty empty 0 -9 0 10 #ffffff #7b7b7b #e4e4e4 0 1;
#X obj 2410 165 / 1024;
#X obj 637 511 vsl 17 128 0 127 0 0 empty empty empty 0 -9 0 10 #ffffff #7b7b7b #e4e4e4 0 1;
#X obj 2495 133 mtof;
#X obj 2500 191 osc~;
#X obj 2500 220 +~ 1;
#X obj 2500 249 /~ 2;
#X obj 2500 278 snapshot~;
#X msg 2500 307 \$1 5;
#X obj 2500 336 line;
#X obj 2500 365 *;
#X obj 714 496 vsl 17 128 0 1 0 0 empty empty empty 0 -9 0 10 #333333 #7b7b7b #e4e4e4 0 1;
#X obj 2500 162 / 1024;
#X obj 690 496 vsl 17 128 0 127 0 0 empty empty empty 0 -9 0 10 #333333 #7b7b7b #e4e4e4 0 1;
#X obj 2586 135 mtof;
#X obj 2591 193 osc~;
#X obj 2591 222 +~ 1;
#X obj 2591 251 /~ 2;
#X obj 2591 280 snapshot~;
#X msg 2591 309 \$1 5;
#X obj 2591 338 line;
#X obj 2591 367 *;
#X obj 768 511 vsl 17 128 0 1 0 0 empty empty empty 0 -9 0 10 #ffffff #7b7b7b #e4e4e4 0 1;
#X obj 2591 164 / 1024;
#X obj 744 511 vsl 17 128 0 127 0 0 empty empty empty 0 -9 0 10 #ffffff #7b7b7b #e4e4e4 0 1;
#X obj 2678 136 mtof;
#X obj 2683 194 osc~;
#X obj 2683 223 +~ 1;
#X obj 2683 252 /~ 2;
#X obj 2683 281 snapshot~;
#X msg 2683 310 \$1 5;
#X obj 2683 339 line;
#X obj 2683 368 *;
#X obj 821 496 vsl 17 128 0 1 0 0 empty empty empty 0 -9 0 10 #333333 #7b7b7b #e4e4e4 0 1;
#X obj 2683 165 / 1024;
#X obj 797 496 vsl 17 128 0 127 0 0 empty empty empty 0 -9 0 10 #333333 #7b7b7b #e4e4e4 0 1;
#X obj 2772 131 mtof;
#X obj 2777 189 osc~;
#X obj 2777 218 +~ 1;
#X obj 2777 247 /~ 2;
#X obj 2777 276 snapshot~;
#X msg 2777 305 \$1 5;
#X obj 2777 334 line;
#X obj 2777 363 *;
#X obj 875 496 vsl 17 128 0 1 0 0 empty empty empty 0 -9 0 10 #333333 #7b7b7b #e4e4e4 0 1;
#X obj 2777 160 / 1024;
#X obj 851 496 vsl 17 128 0 127 0 0 empty empty empty 0 -9 0 10 #333333 #7b7b7b #e4e4e4 0 1;
#X obj 2866 127 mtof;
#X obj 2871 185 osc~;
#X obj 2871 214 +~ 1;
#X obj 2871 243 /~ 2;
#X obj 2871 272 snapshot~;
#X msg 2871 301 \$1 5;
#X obj 2871 330 line;
#X obj 2871 359 *;
#X obj 929 511 vsl 17 128 0 1 0 0 empty empty empty 0 -9 0 10 #ffffff #7b7b7b #e4e4e4 0 1;
#X obj 2871 156 / 1024;
#X obj 905 511 vsl 17 128 0 127 0 0 empty empty empty 0 -9 0 10 #ffffff #7b7b7b #e4e4e4 0 1;
#X obj 2960 125 mtof;
#X obj 2965 183 osc~;
#X obj 2965 212 +~ 1;
#X obj 2965 241 /~ 2;
#X obj 2965 270 snapshot~;
#X msg 2965 299 \$1 5;
#X obj 2965 328 line;
#X obj 2965 357 *;
#X obj 983 496 vsl 17 128 0 1 0 0 empty empty empty 0 -9 0 10 #333333 #7b7b7b #e4e4e4 0 1;
#X obj 2965 154 / 1024;
#X obj 959 496 vsl 17 128 0 127 0 0 empty empty empty 0 -9 0 10 #333333 #7b7b7b #e4e4e4 0 1;
#X obj 3050 122 mtof;
#X obj 3055 180 osc~;
#X obj 3055 209 +~ 1;
#X obj 3055 238 /~ 2;
#X obj 3055 267 snapshot~;
#X msg 3055 296 \$1 5;
#X obj 3055 325 line;
#X obj 3055 354 *;
#X obj 1037 511 vsl 17 128 0 1 0 0 empty empty empty 0 -9 0 10 #ffffff #7b7b7b #e4e4e4 0 1;
#X obj 3055 151 / 1024;
#X obj 1013 511 vsl 17 128 0 127 0 0 empty empty empty 0 -9 0 10 #ffffff #7b7b7b #e4e4e4 0 1;
#X obj 3141 124 mtof;
#X obj 3146 182 osc~;
#X obj 3146 211 +~ 1;
#X obj 3146 240 /~ 2;
#X obj 3146 269 snapshot~;
#X msg 3146 298 \$1 5;
#X obj 3146 327 line;
#X obj 3146 356 *;
#X obj 1091 511 vsl 17 128 0 1 0 0 empty empty empty 0 -9 0 10 #ffffff #7b7b7b #e4e4e4 0 1;
#X obj 3146 153 / 1024;
#X obj 1067 511 vsl 17 128 0 127 0 0 empty empty empty 0 -9 0 10 #ffffff #7b7b7b #e4e4e4 0 1;
#X obj 2428 798 +;
#X obj 2424 758 t b f;
#X obj 2428 827 max 0;
#X obj 2428 856 min 1;
#X obj 2551 800 +;
#X obj 2547 760 t b f;
#X obj 2551 829 max 0;
#X obj 2557 852 min 1;
#X obj 2637 802 +;
#X obj 2633 762 t b f;
#X obj 2637 831 max 0;
#X obj 2637 860 min 1;
#X obj 660 666 vsl 8 127 0 1 0 0 empty empty empty 0 -9 0 10 #ffffff #7b7b7b #e4e4e4 0 1;
#X obj 713 652 vsl 8 127 0 1 0 0 empty empty empty 0 -9 0 10 #333333 #7b7b7b #e4e4e4 0 1;
#X obj 768 667 vsl 8 127 0 1 0 0 empty empty empty 0 -9 0 10 #ffffff #7b7b7b #e4e4e4 0 1;
#X obj 821 652 vsl 8 127 0 1 0 0 empty empty empty 0 -9 0 10 #333333 #7b7b7b #e4e4e4 0 1;
#X obj 2730 792 +;
#X obj 2747 752 t b f;
#X obj 2730 821 max 0;
#X obj 2730 850 min 1;
#X obj 874 652 vsl 8 127 0 1 0 0 empty empty empty 0 -9 0 10 #333333 #7b7b7b #e4e4e4 0 1;
#X obj 3104 804 +;
#X obj 3100 764 t b f;
#X obj 3104 833 max 0;
#X obj 3104 862 min 1;
#X obj 929 666 vsl 8 127 0 1 0 0 empty empty empty 0 -9 0 10 #ffffff #7b7b7b #e4e4e4 0 1;
#X obj 987 652 vsl 8 127 0 1 0 0 empty empty empty 0 -9 0 10 #333333 #7b7b7b #e4e4e4 0 1;
#X obj 1035 666 vsl 8 127 0 1 0 0 empty empty empty 0 -9 0 10 #ffffff #7b7b7b #e4e4e4 0 1;
#X obj 1089 668 vsl 8 127 0 1 0 0 empty empty empty 0 -9 0 10 #ffffff #7b7b7b #e4e4e4 0 1;
#X obj 1144 653 vsl 8 127 0 1 0 0 empty empty empty 0 -9 0 10 #333333 #7b7b7b #e4e4e4 0 1;
#X obj 3520 796 +;
#X obj 3516 756 t b f;
#X obj 3520 825 max 0;
#X obj 3520 854 min 1;
#X obj 3743 796 +;
#X obj 3739 756 t b f;
#X obj 3743 825 max 0;
#X obj 3743 854 min 1;
#X obj 3959 800 +;
#X obj 3955 760 t b f;
#X obj 3959 829 max 0;
#X obj 3959 858 min 1;
#X obj 4193 773 +;
#X obj 4189 733 t b f;
#X obj 4193 802 max 0;
#X obj 4193 831 min 1;
#X obj 4411 765 +;
#X obj 4407 725 t b f;
#X obj 4411 794 max 0;
#X obj 4411 823 min 1;
#X obj 3235 124 mtof;
#X obj 3240 182 osc~;
#X obj 3240 211 +~ 1;
#X obj 3240 240 /~ 2;
#X obj 3240 269 snapshot~;
#X msg 3240 298 \$1 5;
#X obj 3240 327 line;
#X obj 3240 356 *;
#X obj 3240 153 / 1024;
#X obj 1145 496 vsl 17 128 0 1 0 0 empty empty empty 0 -9 0 10 #333333 #7b7b7b #e4e4e4 0 1;
#X obj 1121 496 vsl 17 128 0 127 0 0 empty empty empty 0 -9 0 10 #333333 #7b7b7b #e4e4e4 0 1;
#X obj 1986 151 loadbang;
#X obj 1959 624 loadbang;
#X obj 1984 241 metro 3;
#X text 966 465 B♭;
#X text 803 465 A♭;
#X text 1180 529 resonator;
#X text 1188 458 shifting;
#X obj 435 481 inlet;
#X obj 2919 618 t b f;
#X obj 2918 656 + 0;
#X floatatom 2942 718 17 0 0 0 - - - 12;
#X obj 3173 733 +;
#X obj 2952 825 +;
#X obj 2854 719 t b f;
#X obj 2985 685 line;
#X msg 2065 614 2000;
#X obj 2000 726 metro 2000;
#X obj 2017 451 vsl 17 128 20 2000 0 0 empty empty empty 0 -9 0 10 #333333 #7b7b7b #e4e4e4 0 1;
#X msg 2985 656 \$1 1800;
#X floatatom 2851 586 10 0 0 0 - - - 12;
#X obj 354 1117 bng 19 250 50 0 empty empty empty 0 -10 0 12 #fcfcfc #000000 #000000;
#X floatatom 374 1073 5 0 0 0 - - - 0;
#X obj 353 1096 del;
#X obj 295 1098 t b b;
#X floatatom 542 1024 5 0 0 0 - - - 0;
#X obj 539 1092 spigot;
#X obj 550 1073 > 0;
#X obj 501 1071 spigot;
#X obj 505 1044 < 0;
#X obj 502 1091 * -1;
#X floatatom 502 1116 5 0 0 0 - - - 0;
#X obj 295 1073 bng 19 250 50 0 empty empty empty 0 -10 0 12 #fcfcfc #000000 #000000;
#X obj 337 1165 line 0 1;
#X obj 422 1141 pack 0 float;
#X obj 328 1142 pack 1 float;
#X obj 394 1216 *~;
#X obj 232 320 inlet;
#X obj 1189 717 tgl 41 0 empty empty env\ mode -3 -11 0 10 #333333 #7b7b7b #000000 0 1;
#X obj 1187 786 vsl 17 128 1 2000 0 0 empty empty attack -4 -9 0 10 #333333 #7b7b7b #000000 0 1;
#X obj 1222 786 vsl 17 128 30 4000 0 0 empty empty release -6 -9 0 10 #333333 #7b7b7b #000000 0 1;
#X obj 2259 1519 *~ 1;
#X obj 1247 1186 == 1;
#X obj 1247 1215 sel 1;
#X obj 1247 1244 bng 25 250 50 0 empty empty empty 17 7 0 10 #333333 #7b7b7b #e4e4e4;
#X obj 1315 1214 sel 1;
#X obj 1315 1243 bng 25 250 50 0 empty empty empty 17 7 0 10 #333333 #7b7b7b #e4e4e4;
#X obj 1315 1185 == 0;
#X msg 1253 1293 1;
#X obj 1702 1665 *~;
#X msg 1319 1290 1;
#X msg 1363 1291 0;
#X msg 1278 1294 0;
#X obj 1367 1525 *~;
#X floatatom 334 585 11 0 0 0 - - - 12;
#X obj 1634 1829 *~ 1;
#X obj 1634 1858 outlet~;
#X obj 1637 1715 *~ 0.3;
#X obj 276 497 > 0;
#X obj 276 526 tgl 25 0 empty empty empty 17 7 0 10 #333333 #7b7b7b #e4e4e4 0 1;
#X msg 284 437 1;
#X msg 334 466 0;
#X floatatom 323 749 5 0 0 0 - - - 12;
#X obj 321 708 spigot;
#X obj 328 365 bng 25 250 50 0 empty empty empty 17 7 0 10 #333333 #7b7b7b #e4e4e4;
#X obj 334 437 delay 10;
#X obj 496 387 inlet;
#X connect 0 0 6 0;
#X connect 1 0 0 0;
#X connect 2 0 259 0;
#X connect 3 0 259 0;
#X connect 4 0 1 0;
#X connect 5 0 17 0;
#X connect 6 0 8 0;
#X connect 7 0 305 0;
#X connect 8 0 293 0;
#X connect 9 0 14 0;
#X connect 10 0 9 0;
#X connect 11 0 263 0;
#X connect 12 0 263 0;
#X connect 13 0 10 0;
#X connect 14 0 16 0;
#X connect 15 0 328 0;
#X connect 16 0 293 0;
#X connect 17 0 516 0;
#X connect 18 0 23 0;
#X connect 19 0 18 0;
#X connect 20 0 265 0;
#X connect 21 0 265 0;
#X connect 22 0 19 0;
#X connect 23 0 25 0;
#X connect 24 0 442 0;
#X connect 25 0 293 0;
#X connect 26 0 31 0;
#X connect 27 0 26 0;
#X connect 28 0 261 0;
#X connect 29 0 261 0;
#X connect 30 0 27 0;
#X connect 31 0 33 0;
#X connect 32 0 311 0;
#X connect 33 0 293 0;
#X connect 34 0 38 0;
#X connect 35 0 519 0;
#X connect 36 0 519 1;
#X connect 37 0 34 0;
#X connect 38 0 257 0;
#X connect 39 0 518 0;
#X connect 40 0 45 0;
#X connect 41 0 40 0;
#X connect 42 0 267 0;
#X connect 43 0 267 0;
#X connect 44 0 41 0;
#X connect 45 0 47 0;
#X connect 46 0 446 0;
#X connect 47 0 293 0;
#X connect 48 0 53 0;
#X connect 49 0 48 0;
#X connect 50 0 269 0;
#X connect 51 0 269 0;
#X connect 52 0 49 0;
#X connect 53 0 55 0;
#X connect 54 0 450 0;
#X connect 55 0 293 0;
#X connect 56 0 61 0;
#X connect 57 0 56 0;
#X connect 58 0 271 0;
#X connect 59 0 271 0;
#X connect 60 0 57 0;
#X connect 61 0 63 0;
#X connect 62 0 458 0;
#X connect 63 0 293 0;
#X connect 64 0 30 0;
#X connect 65 0 22 0;
#X connect 66 0 13 0;
#X connect 67 0 72 0;
#X connect 68 0 67 0;
#X connect 69 0 279 0;
#X connect 70 0 279 0;
#X connect 71 0 68 0;
#X connect 72 0 74 0;
#X connect 73 0 480 0;
#X connect 74 0 293 0;
#X connect 75 0 76 0;
#X connect 76 0 8 1;
#X connect 77 0 78 0;
#X connect 78 0 33 1;
#X connect 79 0 80 0;
#X connect 80 0 16 1;
#X connect 81 0 82 0;
#X connect 82 0 25 1;
#X connect 83 0 84 0;
#X connect 84 0 47 1;
#X connect 85 0 86 0;
#X connect 86 0 55 1;
#X connect 87 0 88 0;
#X connect 88 0 63 1;
#X connect 89 0 90 0;
#X connect 90 0 74 1;
#X connect 94 0 44 0;
#X connect 96 0 52 0;
#X connect 98 0 103 0;
#X connect 99 0 98 0;
#X connect 100 0 277 0;
#X connect 101 0 277 0;
#X connect 102 0 99 0;
#X connect 103 0 105 0;
#X connect 104 0 476 0;
#X connect 105 0 293 0;
#X connect 106 0 107 0;
#X connect 107 0 105 1;
#X connect 108 0 60 0;
#X connect 109 0 114 0;
#X connect 110 0 109 0;
#X connect 111 0 273 0;
#X connect 112 0 273 0;
#X connect 113 0 110 0;
#X connect 114 0 116 0;
#X connect 115 0 463 0;
#X connect 116 0 293 0;
#X connect 117 0 118 0;
#X connect 118 0 116 1;
#X connect 120 0 113 0;
#X connect 121 0 126 0;
#X connect 122 0 121 0;
#X connect 123 0 275 0;
#X connect 124 0 275 0;
#X connect 125 0 122 0;
#X connect 126 0 128 0;
#X connect 127 0 472 0;
#X connect 128 0 293 0;
#X connect 129 0 130 0;
#X connect 130 0 128 1;
#X connect 131 0 125 0;
#X connect 133 0 102 0;
#X connect 135 0 71 0;
#X connect 137 0 142 0;
#X connect 138 0 137 0;
#X connect 139 0 281 0;
#X connect 140 0 281 0;
#X connect 141 0 138 0;
#X connect 142 0 144 0;
#X connect 143 0 484 0;
#X connect 144 0 293 0;
#X connect 145 0 146 0;
#X connect 146 0 144 1;
#X connect 147 0 141 0;
#X connect 150 0 156 0;
#X connect 151 0 150 0;
#X connect 152 0 283 0;
#X connect 153 0 283 0;
#X connect 154 0 151 0;
#X connect 156 0 158 0;
#X connect 157 0 488 0;
#X connect 158 0 293 0;
#X connect 159 0 160 0;
#X connect 160 0 158 1;
#X connect 162 0 154 0;
#X connect 168 0 244 0;
#X connect 169 0 2 0;
#X connect 170 0 3 0;
#X connect 174 0 245 0;
#X connect 175 0 28 0;
#X connect 176 0 29 0;
#X connect 177 0 246 0;
#X connect 178 0 11 0;
#X connect 179 0 12 0;
#X connect 183 0 247 0;
#X connect 184 0 20 0;
#X connect 185 0 21 0;
#X connect 187 0 248 0;
#X connect 188 0 42 0;
#X connect 189 0 43 0;
#X connect 220 0 249 0;
#X connect 221 0 50 0;
#X connect 222 0 51 0;
#X connect 223 0 250 0;
#X connect 224 0 58 0;
#X connect 225 0 59 0;
#X connect 226 0 251 0;
#X connect 227 0 111 0;
#X connect 228 0 112 0;
#X connect 229 0 252 0;
#X connect 230 0 123 0;
#X connect 231 0 124 0;
#X connect 232 0 253 0;
#X connect 233 0 100 0;
#X connect 234 0 101 0;
#X connect 235 0 254 0;
#X connect 236 0 69 0;
#X connect 237 0 70 0;
#X connect 238 0 255 0;
#X connect 239 0 139 0;
#X connect 240 0 140 0;
#X connect 241 0 256 0;
#X connect 242 0 152 0;
#X connect 243 0 153 0;
#X connect 244 0 259 0;
#X connect 245 0 261 0;
#X connect 246 0 263 0;
#X connect 247 0 265 0;
#X connect 248 0 267 0;
#X connect 249 0 269 0;
#X connect 250 0 271 0;
#X connect 251 0 273 0;
#X connect 252 0 275 0;
#X connect 253 0 277 0;
#X connect 254 0 279 0;
#X connect 255 0 281 0;
#X connect 256 0 283 0;
#X connect 257 0 522 0;
#X connect 258 0 1 1;
#X connect 259 0 258 0;
#X connect 260 0 27 1;
#X connect 261 0 260 0;
#X connect 262 0 10 1;
#X connect 263 0 262 0;
#X connect 264 0 19 1;
#X connect 265 0 264 0;
#X connect 266 0 41 1;
#X connect 267 0 266 0;
#X connect 268 0 49 1;
#X connect 269 0 268 0;
#X connect 270 0 57 1;
#X connect 271 0 270 0;
#X connect 272 0 110 1;
#X connect 273 0 272 0;
#X connect 274 0 122 1;
#X connect 275 0 274 0;
#X connect 276 0 99 1;
#X connect 277 0 276 0;
#X connect 278 0 68 1;
#X connect 279 0 278 0;
#X connect 280 0 138 1;
#X connect 281 0 280 0;
#X connect 282 0 151 1;
#X connect 283 0 282 0;
#X connect 284 0 285 0;
#X connect 284 0 557 0;
#X connect 285 0 286 0;
#X connect 286 0 287 0;
#X connect 287 0 292 0;
#X connect 288 0 285 1;
#X connect 289 0 291 0;
#X connect 290 0 289 0;
#X connect 291 0 284 0;
#X connect 293 0 543 0;
#X connect 294 0 309 0;
#X connect 295 0 296 0;
#X connect 296 0 297 0;
#X connect 297 0 298 0;
#X connect 298 0 300 0;
#X connect 299 0 505 0;
#X connect 300 0 301 0;
#X connect 301 0 302 0;
#X connect 302 0 306 0;
#X connect 303 0 302 1;
#X connect 305 0 307 0;
#X connect 306 0 305 0;
#X connect 306 1 305 1;
#X connect 307 0 308 0;
#X connect 308 0 75 0;
#X connect 308 0 304 0;
#X connect 309 0 295 0;
#X connect 310 0 294 0;
#X connect 311 0 313 0;
#X connect 312 0 311 0;
#X connect 312 1 311 1;
#X connect 313 0 314 0;
#X connect 314 0 77 0;
#X connect 314 0 326 0;
#X connect 315 0 324 0;
#X connect 316 0 317 0;
#X connect 317 0 318 0;
#X connect 318 0 319 0;
#X connect 319 0 320 0;
#X connect 320 0 321 0;
#X connect 321 0 322 0;
#X connect 322 0 312 0;
#X connect 323 0 322 1;
#X connect 324 0 316 0;
#X connect 325 0 315 0;
#X connect 328 0 330 0;
#X connect 329 0 328 0;
#X connect 329 1 328 1;
#X connect 330 0 331 0;
#X connect 331 0 79 0;
#X connect 331 0 327 0;
#X connect 332 0 341 0;
#X connect 333 0 334 0;
#X connect 334 0 335 0;
#X connect 335 0 336 0;
#X connect 336 0 337 0;
#X connect 337 0 338 0;
#X connect 338 0 339 0;
#X connect 339 0 329 0;
#X connect 340 0 339 1;
#X connect 341 0 333 0;
#X connect 342 0 332 0;
#X connect 343 0 352 0;
#X connect 344 0 345 0;
#X connect 345 0 346 0;
#X connect 346 0 347 0;
#X connect 347 0 348 0;
#X connect 348 0 349 0;
#X connect 349 0 350 0;
#X connect 350 0 443 0;
#X connect 351 0 350 1;
#X connect 352 0 344 0;
#X connect 353 0 343 0;
#X connect 354 0 363 0;
#X connect 355 0 356 0;
#X connect 356 0 357 0;
#X connect 357 0 358 0;
#X connect 358 0 359 0;
#X connect 359 0 360 0;
#X connect 360 0 361 0;
#X connect 361 0 447 0;
#X connect 362 0 361 1;
#X connect 363 0 355 0;
#X connect 364 0 354 0;
#X connect 365 0 374 0;
#X connect 366 0 367 0;
#X connect 367 0 368 0;
#X connect 368 0 369 0;
#X connect 369 0 370 0;
#X connect 370 0 371 0;
#X connect 371 0 372 0;
#X connect 372 0 451 0;
#X connect 373 0 372 1;
#X connect 374 0 366 0;
#X connect 375 0 365 0;
#X connect 376 0 385 0;
#X connect 377 0 378 0;
#X connect 378 0 379 0;
#X connect 379 0 380 0;
#X connect 380 0 381 0;
#X connect 381 0 382 0;
#X connect 382 0 383 0;
#X connect 383 0 459 0;
#X connect 384 0 383 1;
#X connect 385 0 377 0;
#X connect 386 0 376 0;
#X connect 387 0 396 0;
#X connect 388 0 389 0;
#X connect 389 0 390 0;
#X connect 390 0 391 0;
#X connect 391 0 392 0;
#X connect 392 0 393 0;
#X connect 393 0 394 0;
#X connect 394 0 464 0;
#X connect 395 0 394 1;
#X connect 396 0 388 0;
#X connect 397 0 387 0;
#X connect 398 0 407 0;
#X connect 399 0 400 0;
#X connect 400 0 401 0;
#X connect 401 0 402 0;
#X connect 402 0 403 0;
#X connect 403 0 404 0;
#X connect 404 0 405 0;
#X connect 405 0 473 0;
#X connect 406 0 405 1;
#X connect 407 0 399 0;
#X connect 408 0 398 0;
#X connect 409 0 418 0;
#X connect 410 0 411 0;
#X connect 411 0 412 0;
#X connect 412 0 413 0;
#X connect 413 0 414 0;
#X connect 414 0 415 0;
#X connect 415 0 416 0;
#X connect 416 0 477 0;
#X connect 417 0 416 1;
#X connect 418 0 410 0;
#X connect 419 0 409 0;
#X connect 420 0 429 0;
#X connect 421 0 422 0;
#X connect 422 0 423 0;
#X connect 423 0 424 0;
#X connect 424 0 425 0;
#X connect 425 0 426 0;
#X connect 426 0 427 0;
#X connect 427 0 481 0;
#X connect 428 0 427 1;
#X connect 429 0 421 0;
#X connect 430 0 420 0;
#X connect 431 0 440 0;
#X connect 432 0 433 0;
#X connect 433 0 434 0;
#X connect 434 0 435 0;
#X connect 435 0 436 0;
#X connect 436 0 437 0;
#X connect 437 0 438 0;
#X connect 438 0 485 0;
#X connect 439 0 438 1;
#X connect 440 0 432 0;
#X connect 441 0 431 0;
#X connect 442 0 444 0;
#X connect 443 0 442 0;
#X connect 443 1 442 1;
#X connect 444 0 445 0;
#X connect 445 0 81 0;
#X connect 445 0 454 0;
#X connect 446 0 448 0;
#X connect 447 0 446 0;
#X connect 447 1 446 1;
#X connect 448 0 449 0;
#X connect 448 0 449 1;
#X connect 449 0 83 0;
#X connect 449 0 455 0;
#X connect 450 0 452 0;
#X connect 451 0 450 0;
#X connect 451 1 450 1;
#X connect 452 0 453 0;
#X connect 453 0 85 0;
#X connect 453 0 456 0;
#X connect 458 0 460 0;
#X connect 459 0 458 0;
#X connect 459 1 458 1;
#X connect 460 0 461 0;
#X connect 461 0 87 0;
#X connect 461 0 457 0;
#X connect 463 0 465 0;
#X connect 464 0 463 0;
#X connect 464 1 463 1;
#X connect 465 0 466 0;
#X connect 466 0 117 0;
#X connect 466 0 462 0;
#X connect 472 0 474 0;
#X connect 473 0 472 0;
#X connect 473 1 472 1;
#X connect 474 0 475 0;
#X connect 475 0 129 0;
#X connect 475 0 467 0;
#X connect 476 0 478 0;
#X connect 477 0 476 0;
#X connect 477 1 476 1;
#X connect 478 0 479 0;
#X connect 479 0 106 0;
#X connect 479 0 468 0;
#X connect 480 0 482 0;
#X connect 481 0 480 0;
#X connect 481 1 480 1;
#X connect 482 0 483 0;
#X connect 483 0 89 0;
#X connect 483 0 469 0;
#X connect 484 0 486 0;
#X connect 485 0 484 0;
#X connect 485 1 484 1;
#X connect 486 0 487 0;
#X connect 487 0 145 0;
#X connect 487 0 470 0;
#X connect 488 0 490 0;
#X connect 489 0 488 0;
#X connect 489 1 488 1;
#X connect 490 0 491 0;
#X connect 491 0 159 0;
#X connect 491 0 471 0;
#X connect 492 0 500 0;
#X connect 493 0 494 0;
#X connect 494 0 495 0;
#X connect 495 0 496 0;
#X connect 496 0 497 0;
#X connect 497 0 498 0;
#X connect 498 0 499 0;
#X connect 499 0 489 0;
#X connect 500 0 493 0;
#X connect 501 0 499 1;
#X connect 502 0 492 0;
#X connect 503 0 299 0;
#X connect 504 0 35 0;
#X connect 505 0 298 0;
#X connect 505 0 319 0;
#X connect 505 0 336 0;
#X connect 505 0 347 0;
#X connect 505 0 358 0;
#X connect 505 0 369 0;
#X connect 505 0 380 0;
#X connect 505 0 391 0;
#X connect 505 0 402 0;
#X connect 505 0 413 0;
#X connect 505 0 424 0;
#X connect 505 0 435 0;
#X connect 505 0 496 0;
#X connect 510 0 556 0;
#X connect 511 0 512 0;
#X connect 511 1 512 1;
#X connect 512 0 521 0;
#X connect 513 0 515 0;
#X connect 515 0 4 0;
#X connect 515 0 64 0;
#X connect 515 0 65 0;
#X connect 515 0 66 0;
#X connect 515 0 94 0;
#X connect 515 0 96 0;
#X connect 515 0 108 0;
#X connect 515 0 135 0;
#X connect 515 0 120 0;
#X connect 515 0 131 0;
#X connect 515 0 133 0;
#X connect 515 0 147 0;
#X connect 515 0 162 0;
#X connect 516 0 515 0;
#X connect 516 1 515 1;
#X connect 517 0 513 0;
#X connect 518 0 36 0;
#X connect 519 0 37 0;
#X connect 520 0 36 0;
#X connect 521 0 517 0;
#X connect 523 0 536 0;
#X connect 524 0 525 1;
#X connect 524 0 537 1;
#X connect 525 0 523 0;
#X connect 526 0 525 0;
#X connect 526 0 537 0;
#X connect 527 0 531 0;
#X connect 527 0 529 0;
#X connect 527 0 530 0;
#X connect 527 0 528 0;
#X connect 528 0 533 0;
#X connect 529 0 528 1;
#X connect 530 0 532 0;
#X connect 531 0 530 1;
#X connect 532 0 533 0;
#X connect 533 0 536 1;
#X connect 534 0 526 0;
#X connect 535 0 538 1;
#X connect 536 0 535 0;
#X connect 537 0 535 0;
#X connect 538 0 559 0;
#X connect 539 0 534 0;
#X connect 539 0 566 0;
#X connect 540 0 544 0;
#X connect 540 0 549 0;
#X connect 541 0 524 0;
#X connect 542 0 527 0;
#X connect 543 0 551 0;
#X connect 543 0 555 0;
#X connect 544 0 545 0;
#X connect 545 0 546 0;
#X connect 546 0 550 0;
#X connect 546 0 554 0;
#X connect 547 0 548 0;
#X connect 548 0 552 0;
#X connect 548 0 553 0;
#X connect 549 0 547 0;
#X connect 550 0 555 1;
#X connect 551 0 559 0;
#X connect 552 0 551 1;
#X connect 553 0 555 1;
#X connect 554 0 551 1;
#X connect 555 0 538 0;
#X connect 556 0 565 0;
#X connect 557 0 558 0;
#X connect 559 0 292 0;
#X connect 559 0 557 0;
#X connect 560 0 561 0;
#X connect 561 0 565 1;
#X connect 562 0 560 0;
#X connect 563 0 560 0;
#X connect 564 0 5 0;
#X connect 565 0 564 0;
#X connect 566 0 562 0;
#X connect 566 0 567 0;
#X connect 567 0 563 0;
#X connect 568 0 5 0;
#X coords 0 0 1 1 837 490 1 422 444;
