#N canvas 827 239 527 327 12;
#X obj 313 231 inlet;
#X obj 373 185 bng 25 250 50 0 empty empty empty 17 7 0 10 #333333 #7b7b7b #e4e4e4;
#X obj 337 318 int;
#X obj 337 347 + 1;
#X obj 337 376 %;
#X floatatom 409 182 5 0 0 0 - - - 12;
#X floatatom 333 434 5 0 0 0 - - - 12;
#X obj 333 461 + 1;
#X floatatom 368 215 5 0 0 0 - - - 12;
#X obj 341 538 sel 1;
#X obj 415 207 bng 25 250 50 0 empty empty empty 17 7 0 10 #333333 #7b7b7b #e4e4e4;
#X obj 341 610 outlet;
#X connect 0 0 1 0;
#X connect 1 0 2 0;
#X connect 2 0 3 0;
#X connect 3 0 2 1;
#X connect 3 0 4 0;
#X connect 4 0 6 0;
#X connect 5 0 4 1;
#X connect 6 0 7 0;
#X connect 7 0 8 0;
#X connect 8 0 9 0;
#X connect 9 0 10 0;
#X connect 10 0 11 0;
#X coords 0 0 1 1 94 66 1 365 174;
